<?xml version="1.0" encoding="UTF-8" standalone="no"?>
<!-- Generator: Adobe Illustrator 16.0.4, SVG Export Plug-In . SVG Version: 6.00 Build 0)  -->
<svg xmlns:dc="http://purl.org/dc/elements/1.1/" xmlns:cc="http://creativecommons.org/ns#" xmlns:rdf="http://www.w3.org/1999/02/22-rdf-syntax-ns#" xmlns:svg="http://www.w3.org/2000/svg" xmlns="http://www.w3.org/2000/svg" xmlns:sodipodi="http://sodipodi.sourceforge.net/DTD/sodipodi-0.dtd" xmlns:inkscape="http://www.inkscape.org/namespaces/inkscape" version="1.1" x="0px" y="0px" width="204.00401" height="73.532997" viewBox="0 0 204.00401 73.532999" enable-background="new 0 0 254.003 123.533" xml:space="preserve" id="svg2" inkscape:version="0.91 r13725" sodipodi:docname="DZD_Logo_ausStyleGuide_RGB.svg"><metadata id="metadata46"><rdf:RDF><cc:Work rdf:about=""><dc:format>image/svg+xml</dc:format><dc:type rdf:resource="http://purl.org/dc/dcmitype/StillImage"/><dc:title/></cc:Work></rdf:RDF></metadata><defs id="defs44"/><sodipodi:namedview pagecolor="#ffffff" bordercolor="#666666" borderopacity="1" objecttolerance="10" gridtolerance="10" guidetolerance="10" inkscape:pageopacity="0" inkscape:pageshadow="2" inkscape:window-width="640" inkscape:window-height="480" id="namedview42" showgrid="false" fit-margin-top="-25" fit-margin-left="-25" fit-margin-right="-25" fit-margin-bottom="-25" inkscape:zoom="1.4960453" inkscape:cx="102.0015" inkscape:cy="36.76652" inkscape:window-x="0" inkscape:window-y="0" inkscape:window-maximized="0" inkscape:current-layer="svg2"/><g id="Ebene_1" transform="translate(-25,-25)"><path d="m 112.85,79.99 1.723,0 c 0.081,0 0.147,-0.055 0.175,-0.125 l 0.175,-0.541 c 0,-0.041 0.014,-0.068 0.014,-0.096 0,-0.084 -0.067,-0.098 -0.148,-0.098 l -1.938,0 0,-1.068 c 0,-0.804 0.055,-1.386 0.809,-1.386 0.563,0 0.94,0.291 1.17,0.291 0.04,0 0.066,-0.042 0.094,-0.083 l 0.188,-0.458 c 0.026,-0.097 0.067,-0.151 0.067,-0.194 0,-0.207 -0.862,-0.484 -1.479,-0.484 -1.668,0 -1.87,1.262 -1.87,2.301 l 0,1.082 -0.942,0 c -0.093,0 -0.093,0.068 -0.093,0.167 l 0,0.526 c 0,0.07 0,0.166 0.093,0.166 l 0.942,0 0,5.631 c 0,0.111 0.054,0.166 0.161,0.166 l 0.699,0 c 0.108,0 0.161,-0.055 0.161,-0.166 l 0,-5.631 z m 6.736,4.355 c -0.255,0.25 -1.116,0.707 -1.533,0.707 -0.874,0 -1.103,-0.526 -1.103,-1.123 l 0,-4.812 c 0,-0.069 0,-0.18 -0.095,-0.18 -0.094,0.014 -0.054,0 -0.161,0.027 l -0.673,0.166 c -0.054,0.014 -0.094,0.068 -0.094,0.167 l 0,4.603 c 0,1 0.148,2.082 1.964,2.082 0.767,0 1.493,-0.5 1.869,-0.82 0.148,0.32 0.296,0.82 0.498,0.82 0.027,0 0.054,-0.016 0.108,-0.043 l 0.523,-0.332 c 0.055,-0.027 0.121,-0.057 0.121,-0.111 0,-0.084 -0.175,-0.36 -0.256,-0.527 -0.134,-0.291 -0.146,-0.596 -0.146,-0.915 l 0,-4.937 c 0,-0.069 0,-0.18 -0.096,-0.18 -0.094,0.014 -0.053,0 -0.161,0.027 l -0.672,0.166 c -0.054,0.014 -0.095,0.068 -0.095,0.167 l 0,5.048 z m -1.95,-7.281 c 0,-0.402 -0.31,-0.734 -0.713,-0.734 -0.39,0 -0.713,0.332 -0.713,0.734 0,0.402 0.323,0.735 0.713,0.735 0.404,10e-4 0.713,-0.332 0.713,-0.735 m 1.225,0 c 0,0.402 0.322,0.735 0.713,0.735 0.39,0 0.713,-0.333 0.713,-0.735 0,-0.402 -0.323,-0.734 -0.713,-0.734 -0.391,0 -0.713,0.332 -0.713,0.734 m 4.825,3.981 c 0.323,-0.361 0.794,-1.082 1.265,-1.082 0.256,0 0.377,0.125 0.443,0.125 0.055,0 0.067,-0.068 0.081,-0.098 l 0.296,-0.707 c 0.015,-0.041 0.04,-0.084 0.04,-0.11 0,-0.125 -0.35,-0.235 -0.658,-0.235 -0.78,0 -1.265,0.776 -1.614,1.164 -0.054,-0.305 -0.282,-1.164 -0.525,-1.164 -0.025,0 -0.08,0.027 -0.134,0.069 l -0.498,0.317 c -0.026,0.016 -0.08,0.057 -0.094,0.14 0,0.042 0.041,0.151 0.147,0.347 0.189,0.348 0.229,0.805 0.229,1.053 l 0,4.758 c 0,0.111 0.054,0.166 0.161,0.166 l 0.7,0 c 0.106,0 0.16,-0.055 0.16,-0.166 l 0,-4.577 z m 8.46,3.771 0,-7.558 0.74,0 c 1.574,0 2.421,0.597 2.421,3.634 0,2.37 -0.403,3.924 -2.327,3.924 l -0.834,0 z m -0.94,-8.529 c -0.108,0 -0.162,0.057 -0.162,0.168 l 0,9.166 c 0,0.111 0.054,0.166 0.162,0.166 l 1.547,0 c 2.744,0 3.766,-1.539 3.766,-4.84 0,-4.201 -1.749,-4.66 -3.619,-4.66 l -1.694,0 z m 8.674,3.053 c 0,-0.126 -0.027,-0.209 -0.174,-0.209 l -1.897,0 c -0.107,0 -0.161,0.057 -0.161,0.167 l 0,0.526 c 0,0.111 0.054,0.166 0.161,0.166 l 1.049,0 0,5.631 c 0,0.111 0.055,0.166 0.162,0.166 l 0.699,0 c 0.108,0 0.161,-0.055 0.161,-0.166 l 0,-6.281 z m 0.243,-2.651 c 0,-0.457 -0.362,-0.845 -0.821,-0.845 -0.456,0 -0.819,0.374 -0.819,0.845 0,0.473 0.363,0.846 0.819,0.846 0.458,0 0.821,-0.387 0.821,-0.846 m 5.841,4.189 c 0,-1.164 -0.524,-1.94 -2.071,-1.94 -0.86,0 -2.099,0.402 -2.099,0.637 0,0.07 0.014,0.111 0.04,0.181 l 0.176,0.485 c 0.013,0.041 0.054,0.069 0.093,0.069 0.122,0 0.741,-0.444 1.642,-0.444 0.955,0 1.197,0.444 1.197,1.25 l 0,0.498 c -0.834,0.027 -3.523,0.069 -3.523,2.414 0,1.232 0.685,1.955 1.748,1.955 1.117,0 1.775,-0.777 1.937,-0.931 0.067,0.194 0.31,0.931 0.512,0.931 0.026,0 0.054,-0.016 0.107,-0.043 l 0.525,-0.332 c 0.053,-0.027 0.12,-0.057 0.12,-0.111 0,-0.084 -0.188,-0.348 -0.242,-0.514 -0.121,-0.388 -0.161,-0.513 -0.161,-1.387 l 0,-2.718 z m -1.022,3.384 c -0.215,0.193 -0.834,0.859 -1.532,0.859 -0.688,0 -0.982,-0.623 -0.982,-1.178 0,-1.457 1.923,-1.457 2.515,-1.47 l 0,1.789 z m 4.165,-3.702 c 0.552,-0.389 0.809,-0.694 1.589,-0.694 1.089,0 1.196,1.082 1.196,2.149 0,1.442 -0.122,3.037 -1.386,3.037 -0.591,0 -1.089,-0.306 -1.399,-0.526 l 0,-3.966 z m 0,-4.632 c 0,-0.068 0,-0.18 -0.094,-0.18 -0.094,0.014 -0.053,0 -0.161,0.027 l -0.673,0.166 c -0.054,0.014 -0.094,0.069 -0.094,0.166 l 0,7.988 c 0,0.443 -0.094,0.762 -0.215,0.984 -0.094,0.236 -0.202,0.332 -0.202,0.402 0,0.068 0.094,0.11 0.202,0.18 l 0.337,0.222 c 0.053,0.042 0.134,0.099 0.188,0.099 0.148,0 0.363,-0.486 0.431,-0.681 0.43,0.431 0.928,0.681 1.87,0.681 1.789,0 2.3,-1.943 2.3,-3.939 0,-1.705 -0.552,-3.105 -2.18,-3.105 -0.618,0 -1.345,0.318 -1.709,0.707 l 0,-3.717 z m 6.267,5.892 c 0,-0.692 0.269,-2.023 1.506,-2.023 1.171,0 1.398,1.303 1.398,2.023 l -2.904,0 z m 3.59,2.746 c -0.027,-0.041 -0.041,-0.082 -0.081,-0.082 -0.08,0 -0.78,0.567 -1.654,0.567 -1.532,0 -1.855,-1.524 -1.855,-2.371 l 3.859,0 c 0.148,0 0.148,-0.11 0.148,-0.305 0,-1.192 -0.202,-3.438 -2.448,-3.438 -1.668,0 -2.663,1.483 -2.663,3.521 0,2.107 1.05,3.508 2.838,3.523 0.995,0 2.125,-0.57 2.125,-0.723 0,-0.041 -0.025,-0.068 -0.041,-0.111 l -0.228,-0.581 z m 5.534,0.196 c 0,-0.043 -0.041,-0.084 -0.095,-0.084 -0.121,0 -0.659,0.374 -1.291,0.374 -0.808,0 -0.808,-0.567 -0.808,-1.123 l 0,-3.939 1.775,0 c 0.081,0 0.147,-0.055 0.176,-0.125 l 0.174,-0.541 c 0,-0.041 0.015,-0.068 0.015,-0.096 0,-0.084 -0.067,-0.098 -0.149,-0.098 l -1.99,0 0,-2.135 c 0,-0.084 0,-0.153 -0.066,-0.153 -0.027,0 -0.055,0.015 -0.095,0.015 l -0.714,0.207 c -0.093,0.028 -0.146,0.084 -0.146,0.168 l 0,1.898 -1.01,0 c -0.094,0 -0.094,0.068 -0.094,0.167 l 0,0.526 c 0,0.07 0,0.166 0.094,0.166 l 1.01,0 0,3.938 c 0,0.513 0,1.138 0.39,1.567 0.202,0.264 0.686,0.486 1.264,0.486 0.728,0 1.735,-0.39 1.735,-0.57 0,-0.041 -0.014,-0.082 -0.027,-0.139 l -0.148,-0.509 z m 1.874,-2.942 c 0,-0.692 0.269,-2.023 1.507,-2.023 1.17,0 1.399,1.303 1.399,2.023 l -2.906,0 z m 3.591,2.746 c -0.027,-0.041 -0.041,-0.082 -0.081,-0.082 -0.081,0 -0.781,0.567 -1.655,0.567 -1.532,0 -1.855,-1.524 -1.855,-2.371 l 3.86,0 c 0.148,0 0.148,-0.11 0.148,-0.305 0,-1.192 -0.202,-3.438 -2.448,-3.438 -1.668,0 -2.664,1.483 -2.664,3.521 0,2.107 1.049,3.508 2.838,3.523 0.995,0 2.126,-0.57 2.126,-0.723 0,-0.041 -0.026,-0.068 -0.041,-0.111 l -0.228,-0.581 z m 5.372,-4.894 c 0.013,-0.057 0.053,-0.098 0.053,-0.139 0,-0.069 -0.04,-0.125 -0.146,-0.18 -0.351,-0.195 -1.13,-0.416 -1.588,-0.416 -1.184,0 -2.03,0.803 -2.03,1.926 0,2.096 2.986,1.775 2.986,3.217 0,0.666 -0.498,1 -1.077,1 -0.914,0 -1.613,-0.485 -1.735,-0.485 -0.04,0 -0.081,0.026 -0.121,0.124 l -0.188,0.43 c -0.027,0.057 -0.055,0.098 -0.055,0.168 0,0.276 1.399,0.666 2.044,0.666 1.157,0 2.153,-0.666 2.153,-1.971 0,-2.162 -2.986,-1.732 -2.986,-3.259 0,-0.638 0.456,-0.915 0.995,-0.915 0.699,0 1.265,0.375 1.359,0.375 0.08,0 0.106,-0.055 0.161,-0.166 l 0.175,-0.375 z m 3.3,0.318 1.722,0 c 0.081,0 0.148,-0.055 0.176,-0.125 l 0.175,-0.541 c 0,-0.041 0.013,-0.068 0.013,-0.096 0,-0.084 -0.066,-0.098 -0.147,-0.098 l -1.938,0 0,-1.068 c 0,-0.804 0.054,-1.386 0.809,-1.386 0.564,0 0.94,0.291 1.169,0.291 0.041,0 0.067,-0.042 0.095,-0.083 l 0.188,-0.458 c 0.027,-0.097 0.067,-0.151 0.067,-0.194 0,-0.207 -0.861,-0.484 -1.479,-0.484 -1.668,0 -1.869,1.262 -1.869,2.301 l 0,1.082 -0.941,0 c -0.094,0 -0.094,0.068 -0.094,0.167 l 0,0.526 c 0,0.07 0,0.166 0.094,0.166 l 0.941,0 0,5.631 c 0,0.111 0.054,0.166 0.162,0.166 l 0.698,0 c 0.107,0 0.161,-0.055 0.161,-0.166 l 0,-5.631 z m 7.914,2.426 c 0,-1.954 -0.78,-3.479 -2.622,-3.479 -1.95,0 -2.73,1.635 -2.73,3.549 0,1.983 0.78,3.496 2.596,3.496 1.963,0 2.756,-1.623 2.756,-3.566 m -2.662,2.705 c -1.238,0 -1.588,-1.178 -1.588,-2.758 0,-1.375 0.364,-2.566 1.574,-2.566 1.21,0 1.574,1.248 1.574,2.607 0.001,1.594 -0.364,2.717 -1.56,2.717 m 5.351,-4.076 c 0.322,-0.361 0.794,-1.082 1.264,-1.082 0.256,0 0.377,0.125 0.444,0.125 0.054,0 0.066,-0.068 0.081,-0.098 l 0.295,-0.707 c 0.015,-0.041 0.041,-0.084 0.041,-0.11 0,-0.125 -0.351,-0.235 -0.659,-0.235 -0.78,0 -1.265,0.776 -1.614,1.164 -0.054,-0.305 -0.282,-1.164 -0.525,-1.164 -0.025,0 -0.079,0.027 -0.134,0.069 l -0.498,0.317 c -0.025,0.016 -0.08,0.057 -0.093,0.14 0,0.042 0.039,0.151 0.147,0.347 0.188,0.348 0.229,0.805 0.229,1.053 l 0,4.758 c 0,0.111 0.054,0.166 0.161,0.166 l 0.7,0 c 0.106,0 0.161,-0.055 0.161,-0.166 l 0,-4.577 z m 6.55,-1.373 c 0.014,-0.057 0.054,-0.098 0.054,-0.139 0,-0.069 -0.04,-0.125 -0.146,-0.18 -0.351,-0.195 -1.132,-0.416 -1.589,-0.416 -1.184,0 -2.03,0.803 -2.03,1.926 0,2.096 2.985,1.775 2.985,3.217 0,0.666 -0.498,1 -1.075,1 -0.914,0 -1.615,-0.485 -1.735,-0.485 -0.04,0 -0.081,0.026 -0.121,0.124 l -0.189,0.43 c -0.025,0.057 -0.053,0.098 -0.053,0.168 0,0.276 1.398,0.666 2.044,0.666 1.157,0 2.152,-0.666 2.152,-1.971 0,-2.162 -2.986,-1.732 -2.986,-3.259 0,-0.638 0.458,-0.915 0.995,-0.915 0.7,0 1.265,0.375 1.359,0.375 0.081,0 0.107,-0.055 0.161,-0.166 l 0.174,-0.375 z m 5.914,4.894 c -0.026,-0.041 -0.04,-0.082 -0.08,-0.082 -0.081,0 -0.78,0.567 -1.655,0.567 -1.304,0 -1.546,-1.331 -1.546,-2.593 0,-1.581 0.39,-2.594 1.708,-2.594 0.793,0 1.371,0.707 1.426,0.707 0.039,0 0.054,-0.041 0.08,-0.082 l 0.311,-0.582 c 0.013,-0.043 0.04,-0.07 0.04,-0.111 0,-0.208 -1.036,-0.859 -1.938,-0.859 -1.655,0 -2.73,1.413 -2.73,3.729 0,2.025 0.929,3.316 2.529,3.316 0.995,0 2.124,-0.57 2.124,-0.723 0,-0.041 -0.025,-0.068 -0.04,-0.111 l -0.229,-0.582 z m 1.622,1.055 c 0,0.111 0.055,0.166 0.162,0.166 l 0.699,0 c 0.107,0 0.16,-0.055 0.16,-0.166 l 0,-4.909 c 0.337,-0.306 0.943,-0.847 1.817,-0.847 0.726,0 0.873,0.527 0.873,1.123 l 0,4.633 c 0,0.111 0.055,0.166 0.163,0.166 l 0.698,0 c 0.107,0 0.161,-0.055 0.161,-0.166 l 0,-4.604 c 0,-0.997 -0.106,-2.079 -1.601,-2.079 -0.981,0 -1.681,0.582 -2.112,0.942 l 0,-3.952 c 0,-0.068 0,-0.18 -0.093,-0.18 -0.094,0.014 -0.054,0 -0.162,0.027 l -0.672,0.166 c -0.054,0.014 -0.095,0.069 -0.095,0.166 l 0,9.514 z m 10.313,-1.276 c -0.255,0.25 -1.116,0.707 -1.533,0.707 -0.874,0 -1.103,-0.526 -1.103,-1.123 l 0,-4.812 c 0,-0.069 0,-0.18 -0.094,-0.18 -0.096,0.014 -0.054,0 -0.162,0.027 l -0.672,0.166 c -0.055,0.014 -0.095,0.068 -0.095,0.167 l 0,4.603 c 0,1 0.148,2.082 1.965,2.082 0.767,0 1.491,-0.5 1.868,-0.82 0.149,0.32 0.296,0.82 0.498,0.82 0.027,0 0.055,-0.016 0.108,-0.043 l 0.525,-0.332 c 0.053,-0.027 0.12,-0.057 0.12,-0.111 0,-0.084 -0.175,-0.36 -0.256,-0.527 -0.135,-0.291 -0.147,-0.596 -0.147,-0.915 l 0,-4.937 c 0,-0.069 0,-0.18 -0.095,-0.18 -0.094,0.014 -0.054,0 -0.161,0.027 l -0.673,0.166 c -0.054,0.014 -0.095,0.068 -0.095,0.167 l 0,5.048 z m 7.761,-3.328 c 0,-0.997 -0.107,-2.079 -1.602,-2.079 -1.021,0 -1.721,0.582 -2.165,0.942 -0.013,-0.11 -0.175,-0.942 -0.417,-0.942 -0.04,0 -0.08,0.041 -0.108,0.055 l -0.604,0.348 c -0.053,0.041 -0.068,0.068 -0.068,0.096 0,0.07 0.109,0.168 0.216,0.584 0.055,0.207 0.055,0.36 0.055,0.817 l 0,4.784 c 0,0.111 0.054,0.166 0.161,0.166 l 0.699,0 c 0.108,0 0.161,-0.055 0.161,-0.166 l 0,-4.909 c 0.337,-0.306 0.901,-0.847 1.775,-0.847 0.727,0 0.875,0.527 0.875,1.123 l 0,4.633 c 0,0.111 0.054,0.166 0.162,0.166 l 0.698,0 c 0.108,0 0.162,-0.055 0.162,-0.166 l 0,-4.605 z m 6.525,-0.042 c 0,-0.499 0.054,-0.679 0.175,-1.025 0.121,-0.334 0.242,-0.402 0.242,-0.514 0,-0.027 0,-0.041 -0.053,-0.082 l -0.606,-0.389 c -0.025,-0.014 -0.066,-0.027 -0.121,-0.027 -0.121,0 -0.269,0.25 -0.39,0.596 -0.175,-0.139 -0.699,-0.596 -1.587,-0.596 -1.708,0 -2.528,1.428 -2.528,3.604 0,1.957 0.848,3.066 2.071,3.066 0.901,0 1.52,-0.5 1.829,-0.764 0,0.167 0.04,0.736 0.04,1.43 0,0.748 -0.147,1.496 -1.399,1.496 -0.928,0 -1.733,-0.541 -1.842,-0.541 -0.055,0 -0.081,0.043 -0.094,0.084 l -0.216,0.471 c -0.04,0.084 -0.055,0.111 -0.055,0.181 0,0.265 1.252,0.735 2.261,0.735 1.815,0 2.367,-1.18 2.367,-2.44 0,-0.749 -0.095,-2.372 -0.095,-3.147 l 0,-2.138 z m -1.021,3.009 c -0.31,0.223 -0.874,0.693 -1.573,0.693 -0.916,0 -1.17,-0.93 -1.17,-2.398 0,-1.484 0.483,-2.414 1.506,-2.414 0.538,0 1.009,0.265 1.237,0.375 l 0,3.744 z" id="path5" inkscape:connector-curvature="0" style="fill:#333f48"/><path d="m 112.864,68.816 0,-7.558 0.74,0 c 1.574,0 2.421,0.597 2.421,3.633 0,2.372 -0.402,3.925 -2.327,3.925 l -0.834,0 z m -0.942,-8.527 c -0.107,0 -0.161,0.055 -0.161,0.166 l 0,9.167 c 0,0.11 0.054,0.166 0.161,0.166 l 1.548,0 c 2.743,0 3.765,-1.539 3.765,-4.84 0,-4.202 -1.748,-4.659 -3.617,-4.659 l -1.696,0 z m 7.659,5.532 c 0,-0.694 0.269,-2.025 1.507,-2.025 1.17,0 1.398,1.304 1.398,2.025 l -2.905,0 z m 3.59,2.745 c -0.027,-0.041 -0.04,-0.083 -0.081,-0.083 -0.08,0 -0.779,0.569 -1.654,0.569 -1.533,0 -1.855,-1.526 -1.855,-2.372 l 3.859,0 c 0.148,0 0.148,-0.111 0.148,-0.306 0,-1.191 -0.202,-3.438 -2.448,-3.438 -1.668,0 -2.663,1.484 -2.663,3.522 0,2.107 1.049,3.508 2.838,3.521 0.996,0 2.125,-0.568 2.125,-0.721 0,-0.041 -0.025,-0.069 -0.04,-0.11 l -0.229,-0.582 z m 5.556,-0.222 c -0.256,0.25 -1.117,0.709 -1.534,0.709 -0.874,0 -1.103,-0.527 -1.103,-1.125 l 0,-4.811 c 0,-0.069 0,-0.18 -0.094,-0.18 -0.095,0.014 -0.055,0 -0.162,0.028 l -0.672,0.166 c -0.055,0.014 -0.095,0.07 -0.095,0.167 l 0,4.604 c 0,0.998 0.148,2.079 1.964,2.079 0.767,0 1.492,-0.499 1.868,-0.816 0.149,0.317 0.297,0.816 0.499,0.816 0.027,0 0.055,-0.014 0.107,-0.041 l 0.524,-0.333 c 0.055,-0.028 0.121,-0.056 0.121,-0.11 0,-0.084 -0.175,-0.361 -0.255,-0.527 -0.135,-0.291 -0.147,-0.596 -0.147,-0.916 l 0,-4.936 c 0,-0.069 0,-0.18 -0.095,-0.18 -0.095,0.014 -0.054,0 -0.161,0.028 l -0.673,0.166 c -0.055,0.014 -0.094,0.07 -0.094,0.167 l 0,5.045 z m 6.601,0.416 c 0,-0.041 -0.041,-0.082 -0.096,-0.082 -0.121,0 -0.658,0.375 -1.291,0.375 -0.807,0 -0.807,-0.569 -0.807,-1.125 l 0,-3.937 1.776,0 c 0.079,0 0.146,-0.055 0.175,-0.125 l 0.174,-0.54 c 0,-0.042 0.014,-0.07 0.014,-0.098 0,-0.083 -0.066,-0.097 -0.147,-0.097 l -1.991,0 0,-2.135 c 0,-0.083 0,-0.153 -0.067,-0.153 -0.026,0 -0.055,0.014 -0.095,0.014 l -0.712,0.208 c -0.094,0.028 -0.148,0.084 -0.148,0.167 l 0,1.899 -1.009,0 c -0.094,0 -0.094,0.07 -0.094,0.167 l 0,0.527 c 0,0.069 0,0.166 0.094,0.166 l 1.009,0 0,3.937 c 0,0.514 0,1.138 0.391,1.568 0.201,0.262 0.686,0.484 1.264,0.484 0.728,0 1.735,-0.389 1.735,-0.568 0,-0.041 -0.014,-0.082 -0.027,-0.138 l -0.148,-0.514 z m 4.942,-5.089 c 0.013,-0.055 0.053,-0.097 0.053,-0.139 0,-0.069 -0.04,-0.124 -0.146,-0.18 -0.35,-0.194 -1.13,-0.416 -1.588,-0.416 -1.185,0 -2.031,0.805 -2.031,1.928 0,2.093 2.986,1.775 2.986,3.218 0,0.666 -0.497,0.998 -1.076,0.998 -0.914,0 -1.614,-0.486 -1.735,-0.486 -0.04,0 -0.081,0.029 -0.122,0.125 l -0.187,0.431 c -0.027,0.056 -0.055,0.097 -0.055,0.166 0,0.276 1.398,0.665 2.045,0.665 1.156,0 2.152,-0.665 2.152,-1.969 0,-2.163 -2.986,-1.733 -2.986,-3.258 0,-0.638 0.458,-0.915 0.995,-0.915 0.699,0 1.265,0.374 1.359,0.374 0.08,0 0.107,-0.056 0.161,-0.167 l 0.175,-0.375 z m 5.914,4.895 c -0.027,-0.041 -0.041,-0.083 -0.081,-0.083 -0.081,0 -0.781,0.569 -1.654,0.569 -1.305,0 -1.548,-1.332 -1.548,-2.594 0,-1.581 0.392,-2.593 1.709,-2.593 0.793,0 1.372,0.708 1.426,0.708 0.041,0 0.055,-0.042 0.082,-0.084 l 0.309,-0.582 c 0.013,-0.042 0.04,-0.069 0.04,-0.111 0,-0.208 -1.035,-0.86 -1.938,-0.86 -1.653,0 -2.729,1.415 -2.729,3.729 0,2.025 0.928,3.314 2.529,3.314 0.993,0 2.125,-0.568 2.125,-0.721 0,-0.041 -0.027,-0.069 -0.041,-0.11 l -0.229,-0.582 z m 1.622,1.055 c 0,0.11 0.053,0.166 0.161,0.166 l 0.7,0 c 0.106,0 0.161,-0.056 0.161,-0.166 l 0,-4.91 c 0.337,-0.305 0.94,-0.846 1.815,-0.846 0.727,0 0.874,0.527 0.874,1.124 l 0,4.632 c 0,0.11 0.054,0.166 0.161,0.166 l 0.7,0 c 0.107,0 0.162,-0.056 0.162,-0.166 l 0,-4.604 c 0,-0.998 -0.108,-2.08 -1.602,-2.08 -0.981,0 -1.682,0.583 -2.111,0.943 l 0,-3.952 c 0,-0.069 0,-0.18 -0.095,-0.18 -0.094,0.014 -0.054,0 -0.161,0.028 l -0.674,0.166 c -0.053,0.014 -0.093,0.069 -0.093,0.166 l 0,9.513 z m 7.418,-3.8 c 0,-0.694 0.27,-2.025 1.506,-2.025 1.17,0 1.399,1.304 1.399,2.025 l -2.905,0 z m 3.591,2.745 c -0.026,-0.041 -0.04,-0.083 -0.08,-0.083 -0.081,0 -0.78,0.569 -1.654,0.569 -1.534,0 -1.856,-1.526 -1.856,-2.372 l 3.86,0 c 0.147,0 0.147,-0.111 0.147,-0.306 0,-1.191 -0.202,-3.438 -2.448,-3.438 -1.668,0 -2.662,1.484 -2.662,3.522 0,2.107 1.048,3.508 2.838,3.521 0.995,0 2.125,-0.568 2.125,-0.721 0,-0.041 -0.027,-0.069 -0.04,-0.11 l -0.23,-0.582 z m 5.372,-4.895 c 0.015,-0.055 0.054,-0.097 0.054,-0.139 0,-0.069 -0.039,-0.124 -0.147,-0.18 -0.349,-0.194 -1.13,-0.416 -1.587,-0.416 -1.185,0 -2.031,0.805 -2.031,1.928 0,2.093 2.986,1.775 2.986,3.218 0,0.666 -0.498,0.998 -1.076,0.998 -0.915,0 -1.615,-0.486 -1.735,-0.486 -0.041,0 -0.081,0.029 -0.121,0.125 l -0.188,0.431 c -0.028,0.056 -0.054,0.097 -0.054,0.166 0,0.276 1.398,0.665 2.044,0.665 1.156,0 2.151,-0.665 2.151,-1.969 0,-2.163 -2.985,-1.733 -2.985,-3.258 0,-0.638 0.457,-0.915 0.996,-0.915 0.697,0 1.264,0.374 1.357,0.374 0.081,0 0.108,-0.056 0.161,-0.167 l 0.175,-0.375 z m 10.586,5.394 c 0,-0.151 0,-0.249 -0.243,-0.249 l -3.887,0 3.982,-7.668 0,-0.68 c 0,-0.152 -0.027,-0.18 -0.176,-0.18 l -4.438,0 c -0.094,0 -0.175,0.041 -0.215,0.152 l -0.188,0.527 c -0.014,0.07 -0.054,0.125 -0.054,0.181 0,0.083 0.067,0.11 0.161,0.11 l 3.619,0 -3.955,7.613 0,0.721 c 0,0.166 0.04,0.195 0.188,0.195 l 4.991,0 c 0.107,0 0.215,-0.041 0.215,-0.166 l 0,-0.556 z m 1.858,-3.244 c 0,-0.694 0.269,-2.025 1.507,-2.025 1.17,0 1.399,1.304 1.399,2.025 l -2.906,0 z m 3.592,2.745 c -0.027,-0.041 -0.04,-0.083 -0.081,-0.083 -0.08,0 -0.78,0.569 -1.654,0.569 -1.533,0 -1.856,-1.526 -1.856,-2.372 l 3.861,0 c 0.147,0 0.147,-0.111 0.147,-0.306 0,-1.191 -0.202,-3.438 -2.449,-3.438 -1.668,0 -2.663,1.484 -2.663,3.522 0,2.107 1.051,3.508 2.838,3.521 0.996,0 2.127,-0.568 2.127,-0.721 0,-0.041 -0.027,-0.069 -0.041,-0.11 l -0.229,-0.582 z m 6.692,-3.549 c 0,-0.998 -0.107,-2.08 -1.601,-2.08 -1.022,0 -1.722,0.583 -2.166,0.943 -0.013,-0.111 -0.174,-0.943 -0.417,-0.943 -0.04,0 -0.081,0.042 -0.106,0.056 l -0.606,0.346 c -0.053,0.042 -0.066,0.07 -0.066,0.098 0,0.069 0.106,0.166 0.215,0.582 0.054,0.208 0.054,0.36 0.054,0.818 l 0,4.785 c 0,0.11 0.054,0.166 0.162,0.166 l 0.698,0 c 0.107,0 0.162,-0.056 0.162,-0.166 l 0,-4.91 c 0.337,-0.305 0.901,-0.846 1.775,-0.846 0.727,0 0.874,0.527 0.874,1.124 l 0,4.632 c 0,0.11 0.053,0.166 0.162,0.166 l 0.699,0 c 0.107,0 0.161,-0.056 0.161,-0.166 l 0,-4.605 z m 5.576,3.743 c 0,-0.041 -0.039,-0.082 -0.094,-0.082 -0.121,0 -0.659,0.375 -1.291,0.375 -0.808,0 -0.808,-0.569 -0.808,-1.125 l 0,-3.937 1.775,0 c 0.081,0 0.148,-0.055 0.176,-0.125 l 0.175,-0.54 c 0,-0.042 0.013,-0.07 0.013,-0.098 0,-0.083 -0.067,-0.097 -0.147,-0.097 l -1.991,0 0,-2.135 c 0,-0.083 0,-0.153 -0.067,-0.153 -0.025,0 -0.054,0.014 -0.094,0.014 l -0.713,0.208 c -0.094,0.028 -0.147,0.084 -0.147,0.167 l 0,1.899 -1.009,0 c -0.094,0 -0.094,0.07 -0.094,0.167 l 0,0.527 c 0,0.069 0,0.166 0.094,0.166 l 1.009,0 0,3.937 c 0,0.514 0,1.138 0.39,1.568 0.202,0.262 0.686,0.484 1.265,0.484 0.726,0 1.735,-0.389 1.735,-0.568 0,-0.041 -0.014,-0.082 -0.027,-0.138 l -0.15,-0.514 z m 2.468,-3.716 c 0.322,-0.361 0.794,-1.081 1.264,-1.081 0.256,0 0.377,0.124 0.444,0.124 0.054,0 0.067,-0.069 0.081,-0.097 l 0.296,-0.707 c 0.013,-0.042 0.041,-0.083 0.041,-0.111 0,-0.125 -0.351,-0.236 -0.66,-0.236 -0.78,0 -1.264,0.777 -1.615,1.165 -0.053,-0.305 -0.281,-1.165 -0.522,-1.165 -0.028,0 -0.081,0.028 -0.136,0.07 l -0.498,0.319 c -0.025,0.013 -0.08,0.055 -0.094,0.138 0,0.042 0.041,0.153 0.148,0.347 0.188,0.346 0.229,0.804 0.229,1.054 l 0,4.757 c 0,0.11 0.053,0.166 0.161,0.166 l 0.7,0 c 0.106,0 0.161,-0.056 0.161,-0.166 l 0,-4.577 z m 6.869,3.3 c -0.256,0.25 -1.116,0.709 -1.533,0.709 -0.875,0 -1.104,-0.527 -1.104,-1.125 l 0,-4.811 c 0,-0.069 0,-0.18 -0.094,-0.18 -0.094,0.014 -0.054,0 -0.161,0.028 l -0.673,0.166 c -0.053,0.014 -0.094,0.07 -0.094,0.167 l 0,4.604 c 0,0.998 0.147,2.079 1.964,2.079 0.767,0 1.493,-0.499 1.87,-0.816 0.147,0.317 0.296,0.816 0.498,0.816 0.025,0 0.053,-0.014 0.106,-0.041 l 0.524,-0.333 c 0.054,-0.028 0.122,-0.056 0.122,-0.11 0,-0.084 -0.176,-0.361 -0.256,-0.527 -0.135,-0.291 -0.148,-0.596 -0.148,-0.916 l 0,-4.936 c 0,-0.069 0,-0.18 -0.094,-0.18 -0.094,0.014 -0.054,0 -0.162,0.028 l -0.672,0.166 c -0.054,0.014 -0.094,0.07 -0.094,0.167 l 0,5.045 z m 3.079,1.277 c 0,0.11 0.055,0.166 0.162,0.166 l 0.698,0 c 0.109,0 0.162,-0.056 0.162,-0.166 l 0,-5.173 c 0.229,-0.194 0.7,-0.583 1.304,-0.583 0.728,0 0.876,0.527 0.876,1.124 l 0,4.632 c 0,0.11 0.054,0.166 0.161,0.166 l 0.699,0 c 0.108,0 0.161,-0.056 0.161,-0.166 l 0,-5.187 c 0.27,-0.194 0.673,-0.569 1.318,-0.569 0.713,0 0.861,0.527 0.861,1.124 l 0,4.632 c 0,0.11 0.054,0.166 0.161,0.166 l 0.699,0 c 0.107,0 0.162,-0.056 0.162,-0.166 l 0,-4.604 c 0,-0.998 -0.108,-2.08 -1.602,-2.08 -0.645,0 -1.372,0.527 -1.774,0.832 -0.176,-0.554 -0.553,-0.832 -1.427,-0.832 -0.564,0 -1.398,0.486 -1.749,0.818 -0.014,-0.097 -0.16,-0.818 -0.362,-0.818 -0.04,0 -0.095,0.042 -0.121,0.056 l -0.578,0.333 c -0.054,0.041 -0.067,0.069 -0.067,0.097 0,0.069 0.107,0.152 0.175,0.471 0.068,0.319 0.08,0.652 0.08,0.971 l 0,4.756 z" id="path7" inkscape:connector-curvature="0" style="fill:#333f48"/><path d="m 112.625,39.904 c -0.365,0 -0.446,0.061 -0.446,0.426 l 0,13.031 c 0,0.345 0.081,0.426 0.427,0.426 l 3.101,0 c 3.607,0 5.958,-1.196 5.958,-7.012 0,-5.614 -2.026,-6.871 -5.896,-6.871 l -3.144,0 z m 2.29,11.694 0,-9.505 0.73,0 c 2.27,0 3.141,1.013 3.141,4.641 0,3.871 -0.851,4.864 -3.141,4.864 l -0.73,0 z m 16.976,0.243 c 0.02,-0.142 0.039,-0.202 0.039,-0.243 0,-0.142 -0.101,-0.203 -0.282,-0.243 l -5.837,0 5.41,-9.222 0,-1.824 c 0,-0.344 -0.061,-0.405 -0.426,-0.405 l -6.971,0 c -0.345,0 -0.365,0.061 -0.446,0.365 l -0.404,1.581 c -0.041,0.162 -0.041,0.162 -0.041,0.243 0,0.142 0.061,0.243 0.283,0.243 l 4.985,0 -5.451,9.424 0,1.682 c 0,0.284 0.061,0.345 0.344,0.345 l 8.127,0 c 0.346,0 0.386,-0.02 0.446,-0.365 l 0.224,-1.581 z m 2.296,-11.937 c -0.365,0 -0.446,0.061 -0.446,0.426 l 0,13.031 c 0,0.345 0.081,0.426 0.426,0.426 l 3.101,0 c 3.607,0 5.959,-1.196 5.959,-7.012 0,-5.614 -2.027,-6.871 -5.898,-6.871 l -3.142,0 z m 2.29,11.694 0,-9.505 0.729,0 c 2.27,0 3.14,1.013 3.14,4.641 0,3.871 -0.85,4.864 -3.14,4.864 l -0.729,0 z" id="path9" inkscape:connector-curvature="0" style="fill:#da291c"/><g id="g11"><g id="g13"><path d="m 61.933,98.474 c -20.215,0 -36.661,-16.446 -36.661,-36.661 0,-20.215 16.446,-36.661 36.661,-36.661 20.216,0 36.662,16.446 36.662,36.661 0,20.215 -16.446,36.661 -36.662,36.661 z m 0,-71.562 c -19.245,0 -34.901,15.657 -34.901,34.901 0,19.244 15.657,34.901 34.901,34.901 19.245,0 34.902,-15.657 34.902,-34.901 0,-19.244 -15.657,-34.901 -34.902,-34.901 z" id="path15" inkscape:connector-curvature="0" style="fill:#da291c"/></g></g><g id="g17"><path d="m 70.537,35.487 c 0.19,0 0.246,-0.323 0.208,-0.418 -0.039,-0.095 -0.247,-0.152 -0.625,-0.398 -0.379,-0.247 -0.608,-0.36 -0.797,-0.455 -0.189,-0.095 -0.322,-0.076 -0.683,-0.095 -0.36,-0.019 -0.474,0.085 -0.569,0.095 -0.36,0.037 -0.057,0.379 0.19,0.569 0.247,0.19 0.208,0 0.607,0 0.398,0 0.834,0.303 1.1,0.398 0.266,0.095 0.379,0.304 0.569,0.304 z" id="path19" inkscape:connector-curvature="0" style="fill:#da291c"/><path d="m 69.851,36.988 c -0.212,-0.179 -0.782,0.098 -0.819,0.263 0.744,1.487 1.961,2.895 3.816,2.895 0,-1.314 -2.298,-2.209 -2.997,-3.158 z" id="path21" inkscape:connector-curvature="0" style="fill:#da291c"/><path d="m 76.865,40.242 c 0.337,0.855 1.736,1.58 1.627,0.751 -0.513,-0.89 -1.312,-1.446 -1.714,-1.416 -0.084,0.007 -1.101,-0.528 -1.018,0.273 0.161,1.552 1.066,0.295 1.105,0.392 z" id="path23" inkscape:connector-curvature="0" style="fill:#da291c"/><path d="m 83.392,55.085 c -0.229,-0.722 -0.148,-1.548 -0.223,-2.297 -0.035,-0.353 -0.259,-1.39 -0.339,-1.602 -0.387,-1.031 -0.173,-2.48 -1.264,-3.206 0,-0.666 -0.637,-1.241 -1.048,-1.726 -0.222,-0.264 -0.656,-0.874 -0.986,-0.986 -0.955,-0.401 -0.622,-0.336 -1.346,0.092 0,0.508 0.665,0.977 0.433,1.494 -0.155,0.346 -0.716,0.532 -0.977,0.806 -0.6,0.627 -0.264,0.743 0.067,1.333 0.24,0.426 1.188,1.51 1.145,1.815 -0.042,0.314 -0.029,0.679 -0.109,0.983 -0.14,0.535 -0.941,0.551 -0.893,1.159 0.059,0.741 0.454,1.928 0.186,2.653 -0.085,0.232 -0.418,0.329 -0.559,0.533 -0.182,0.261 -0.247,0.591 -0.477,0.822 0,0.185 -0.441,0.213 -0.607,0.393 -0.154,0.168 -0.248,0.385 -0.295,0.606 -0.128,0.614 0.229,1.092 0.366,1.661 0.173,0.724 -0.419,1.734 -0.201,2.447 0.132,0.431 1.012,-0.457 1.171,-0.555 0.421,-0.26 0.96,-0.252 1.449,-0.339 0.499,-0.089 1.311,-0.256 1.788,-0.031 0.414,0.197 1.356,0.701 1.356,0.709 0,-0.602 1.069,-1.135 1.231,-1.695 0.116,-0.395 0.257,-0.953 0.433,-1.356 0.505,-1.165 0.073,-2.531 -0.301,-3.713 z" id="path25" inkscape:connector-curvature="0" style="fill:#da291c"/><path d="m 55.072,67.695 c -0.95,0.806 1.572,1.603 1.834,1.525 0.008,-0.008 0.142,-0.119 0.088,-0.044 1.109,-0.957 -1.053,-2.218 -1.922,-1.481 z" id="path27" inkscape:connector-curvature="0" style="fill:#da291c"/><path d="m 62.059,81.543 c -0.467,-0.147 -1.749,0.966 -1.891,1.027 -0.616,0.268 -0.328,2.754 -0.718,2.795 -0.48,0 -1.439,-1.623 -1.871,-1.355 -0.397,0.561 -0.135,0.814 -0.616,1.294 -0.596,0.842 -0.749,1.194 -0.986,0.739 -0.152,-0.291 -0.234,-0.782 -0.349,-1.088 -0.208,-0.555 -0.029,-0.688 -0.041,-1.274 -0.013,-0.539 -0.473,-0.651 -0.473,-1.212 0,-0.787 -0.053,-2.439 0.863,-2.773 0.185,-0.068 1.382,-0.555 1.268,-0.84 -0.01,-10e-4 0.282,-0.367 0.197,-0.65 -0.242,-0.162 -0.536,-0.213 -0.806,-0.299 -0.627,-0.203 -0.66,-0.715 -1.088,-1.121 10e-4,-0.039 -0.844,-0.539 -1.174,-0.614 -0.166,-0.039 -0.932,-0.308 -0.829,-0.597 0.101,-0.283 1.105,-0.045 1.359,-0.067 0.66,-0.058 1.518,-0.233 2.154,0.017 0.786,0.309 2.013,0.068 2.663,0.719 0.329,0 1.147,0.803 1.393,0.022 0.196,-0.616 -0.574,-0.95 -0.801,-1.418 -1.153,0 -2.593,-0.251 -3.432,-1.09 -0.039,0.001 -1.068,-0.493 -0.863,-1.089 0.113,-0.075 0.273,-0.022 0.432,-0.082 0.493,-0.184 0.241,-0.694 0.082,-1.027 -0.247,-0.514 -0.617,-0.288 -0.925,-0.658 -0.178,-0.214 -0.61,-0.648 -0.78,-0.738 -0.014,-0.166 -0.063,-0.701 -0.185,-0.781 0,-0.662 -0.472,-1.152 -0.473,-1.191 -0.077,-0.078 -0.158,-0.158 -0.236,-0.236 -0.226,0 -1.42,-1.381 -1.42,-1.42 -0.136,-0.09 -1.082,-1.009 -1.073,-1.014 -1.44,-0.68 -0.469,2.469 -1.011,2.842 0,0.194 -0.542,1.02 -0.698,1.149 -0.393,0.328 -1.192,0.56 -1.706,0.362 -0.694,-0.264 -0.649,-0.684 -0.978,-1.277 -0.309,-0.557 -0.749,-1.26 -0.768,-1.906 -0.022,-0.793 0.33,-2.031 0.267,-2.878 -0.083,-1.095 0.776,-2.508 0.781,-2.506 0.005,-0.035 0.267,-0.86 0.39,-1.007 0.401,-0.478 0.616,-0.37 1.541,-0.144 0.901,0.22 1.111,-0.339 1.706,-0.287 1.215,0.107 1.006,0.506 1.582,1.479 0.478,0.802 1.212,-0.607 1.458,-0.801 1.149,-0.901 0.294,-3.745 -0.513,-4.541 -1.166,-1.155 -3.102,-0.822 -4.788,-1.438 -0.337,-0.124 -1.468,-0.253 -1.664,-0.514 -0.202,-0.274 -0.029,-1.105 0.085,-1.573 0.148,-0.503 0.342,-1.007 0.385,-1.303 0.108,-0.733 -0.155,-1.47 0.076,-2.193 0.245,-0.763 0.349,-1.571 0.349,-2.359 0.356,-0.244 0.341,-1.279 0.534,-1.679 0.347,-0.718 0.809,-1.398 1.284,-2.037 0.25,-0.336 2.074,-2.124 3.152,-2.556 0.564,0 2.371,-0.268 2.713,0.262 0.867,0 1.78,0.163 2.616,-0.216 0.782,-0.354 0.987,0.064 1.729,0.278 0.771,0.221 1.953,0.051 2.697,0.339 0.785,0.304 1.14,-0.031 1.31,-0.278 -0.009,-0.003 0.477,-0.504 0.652,-0.504 0.663,0 2.62,0.158 1.422,-1.025 -0.467,-0.46 -1.113,-0.783 -1.705,-1.045 -0.381,-0.169 -2.587,-1.403 -2.513,-2.023 0.089,-0.756 1.092,-0.581 1.612,-0.759 1.333,-0.16 2.789,-0.566 2.869,-0.566 0,-0.07 -1.952,-1.351 -4.881,-1.446 -1.479,-0.048 -2.325,-0.275 -4.052,0.013 -0.832,0.246 -1.807,0.493 -2.619,0.883 -0.478,0.23 -1.226,0.755 -1.614,1.09 -0.854,0.736 -1.658,0.781 -2.346,1.693 -0.844,1.121 -1.183,2.553 -1.85,3.769 -0.257,0.469 -0.988,2.345 -1.029,2.742 -0.102,1.004 -1.85,4.035 -2.136,4.52 -0.198,0.336 -0.208,0.657 -0.263,1.027 -0.123,0.822 -0.373,1.701 -0.268,2.536 0.055,0.437 0.185,0.647 0.151,1.146 -0.047,0.691 0.093,2.45 0.167,3.659 0,1.035 0.398,2.426 0.117,3.42 -0.13,0.461 -0.139,0.717 -0.093,1.207 0.039,0.435 -0.188,4.046 -0.147,4.674 0.121,1.818 -0.147,4.07 0.188,5.871 0.336,1.81 0.991,3.436 1.326,5.24 0.154,0.832 0.431,1.803 0.349,2.59 -0.092,0.871 0.583,5.569 0.904,5.916 0.76,0.821 0.658,1.994 2.014,2.281 1.488,0.316 1.641,-0.052 2.754,0.41 1.088,0.452 1.285,0.232 1.766,0.329 0.482,0.097 0.737,0.149 1.192,0.164 0.153,-0.108 0.719,0.12 0.822,-0.041 0.669,0 0.239,0.128 0.986,0.041 0.793,-0.091 1.326,-1.124 1.418,-1.253 0.182,-0.316 0.739,-0.689 0.843,-1.028 0.103,-0.336 1.294,-0.655 1.458,-0.965 0.194,-0.37 0.66,-0.313 0.822,-0.638 0.176,-0.352 0.069,-1.578 0.329,-1.889 0.513,-0.617 -0.341,-1.168 -0.555,-1.236 z m -9.802,-8.506 c -0.287,-0.195 -0.038,-0.764 0.227,-0.944 0.091,-0.138 0.501,-0.345 0.616,-0.308 0.216,-0.076 0.501,0.512 0.493,0.523 0.216,0.215 -0.133,0.643 0.308,0.678 -0.133,0.198 -1.23,0.334 -1.644,0.051 z" id="path29" inkscape:connector-curvature="0" style="fill:#da291c"/><path d="m 66.948,59.292 c -0.273,-0.227 -0.557,-0.403 -0.843,-0.617 -0.061,-0.041 -0.492,-0.432 -1.068,-0.657 -0.577,-0.224 -2.109,-0.486 -1.212,-0.904 0.219,-0.102 1.469,-0.634 0.616,-0.904 -1.685,-0.535 -4.458,-0.925 -5.706,0.749 -0.511,0.686 0.083,1.708 0.577,2.273 0.897,1.026 1.492,0.902 2.376,0.615 0.622,-0.203 0.509,0.852 2.24,0.739 0.787,-0.051 1.048,-0.883 2.166,0.339 0.331,0.363 2.161,0.396 1.882,-0.441 -0.002,-0.01 -0.644,-0.941 -1.028,-1.192 z" id="path31" inkscape:connector-curvature="0" style="fill:#da291c"/></g></g><g id="Ebene_2" transform="translate(-25,-25)"><rect y="47.686001" width="25.212" height="25.212" id="rect34" x="0" style="fill:none"/><rect x="49.321999" width="25.212" height="25.212" id="rect36" y="0" style="fill:none"/><rect x="49.321999" y="98.32" width="25.212" height="25.212999" id="rect38" style="fill:none"/><rect x="228.79201" y="60.442001" width="25.212" height="25.212" id="rect40" style="fill:none"/></g></svg>