<svg id="Ebene_1" data-name="Ebene 1" xmlns="http://www.w3.org/2000/svg" viewBox="0 0 1365.39 201.04"><defs><style>.cls-1{fill:#145388;}</style></defs><path class="cls-1" d="M752.26,382.2A9.3,9.3,0,0,0,743,374a9,9,0,0,0-8.56,5.31,1.34,1.34,0,0,1-1.4.87c-5.47,0-10.94,0-16.41,0-.58,0-1.28.24-1.72-.13s-.08-1-.15-1.53a9.12,9.12,0,0,1-.17-.91,39.69,39.69,0,0,0-1-7,62.82,62.82,0,0,0-5.17-14.88c-.25-.49-.18-.72.32-1,3-1.73,6-3.5,9-5.24,2.13-1.24,4.28-2.46,6.42-3.69a.68.68,0,0,1,.9,0,9.5,9.5,0,0,0,12.34-14.39,9,9,0,0,0-7.49-2.59,9.21,9.21,0,0,0-5.79,2.58,9.4,9.4,0,0,0-2.8,7.76,1.12,1.12,0,0,1-.71,1.2q-7.22,4.14-14.41,8.34c-1.36.78-1.35.8-2.24-.53-.17-.26-.36-.5-.55-.75-1.69-2.25-3.46-4.42-5.33-6.53a52.8,52.8,0,0,0-4.75-4.6,45.63,45.63,0,0,0-6.49-4.9.59.59,0,0,1-.2-.93c.53-.87,1-1.77,1.53-2.65,2.48-4.29,5-8.58,7.45-12.89.24-.42.53-.62,1-.48a5.12,5.12,0,0,0,2.1,0,8.67,8.67,0,0,0,5.52-2.54,9.27,9.27,0,0,0,2.62-9.11,9.1,9.1,0,0,0-4.24-5.83,10,10,0,0,0-5.87-1.29,8.38,8.38,0,0,0-6.16,3,9.37,9.37,0,0,0-.44,12.18.55.55,0,0,1,0,.73q-4.53,7.84-9.06,15.7c-.26.46-.49.45-.87.25A58.82,58.82,0,0,0,669,323.12a65,65,0,0,0-9.78-1.9,22.06,22.06,0,0,1-3.13-.28c-.49-.13-.57-.32-.57-.74V302.39a.79.79,0,0,1,.61-.87,8.58,8.58,0,0,0,3.82-3A9.55,9.55,0,0,0,658,285.26a9.35,9.35,0,0,0-10.48-.64,9,9,0,0,0-4.58,9.47,8.84,8.84,0,0,0,5.37,7.32,1.2,1.2,0,0,1,.84,1.3c0,5.59,0,11.18,0,16.78,0,1.52,0,1.56-1.53,1.58a38.56,38.56,0,0,0-6.7.8,57,57,0,0,0-16.06,5.39c-.8.43-1.17.21-1.56-.48q-4.31-7.5-8.63-15a1,1,0,0,1,0-1.28,9,9,0,0,0,1.69-7,9.29,9.29,0,0,0-10.18-7.95,9.13,9.13,0,0,0-6.72,3.6,9.77,9.77,0,0,0,0,11.58,9.1,9.1,0,0,0,7.82,3.67,1.93,1.93,0,0,1,2.15,1.23c1.28,2.33,2.65,4.6,4,6.89,1.47,2.54,2.92,5.09,4.42,7.6.39.67.21,1-.38,1.36a51.89,51.89,0,0,0-7.71,6.05,63,63,0,0,0-9.61,11.31c-.27.41-.43.47-.84.23q-7.8-4.53-15.62-9c-.43-.25-.62-.52-.43-1a1.65,1.65,0,0,0,.11-.82,9.52,9.52,0,0,0-3.06-7.1,9.1,9.1,0,0,0-8.28-2.36,9.28,9.28,0,0,0-7.61,9.56,8.88,8.88,0,0,0,5,8.09,9.33,9.33,0,0,0,9.86-.57c.39-.26.72-.55,1.3-.2q7.66,4.48,15.37,8.9c.46.26.66.42.38,1a57.78,57.78,0,0,0-4.34,11.28,53.1,53.1,0,0,0-2,12.19c0,.91-.33,1.09-1.15,1.08-5.44,0-10.88-.07-16.31,0-1.41,0-2.3-.28-2.7-1.68a3.08,3.08,0,0,0-.59-.83,9.46,9.46,0,1,0-7.72,15.22,9.19,9.19,0,0,0,8.94-5.74c.22-.47.52-.45.89-.45h5.44c4.06,0,8.12,0,12.18,0,.79,0,1.07.26,1,1a12.81,12.81,0,0,0,.15,2.31,66,66,0,0,0,1.28,7.65A61.81,61.81,0,0,0,596.09,411c.36.75.2,1-.45,1.38q-7.56,4.31-15.07,8.69a.91.91,0,0,1-1.16,0,9.19,9.19,0,0,0-6.38-1.78,8.92,8.92,0,0,0-6.13,2.89,9.66,9.66,0,0,0-2.54,6.86,9.44,9.44,0,0,0,9.12,9.16,9.12,9.12,0,0,0,7.94-3.81,8.52,8.52,0,0,0,1.74-6.78c-.08-.47.17-.63.52-.83q7.62-4.4,15.2-8.82c.7-.41,1.08-.34,1.52.37a49.16,49.16,0,0,0,6.08,7.7,61.44,61.44,0,0,0,11.24,9.55c.45.29.44.52.2.94-2.86,4.89-5.74,9.78-8.52,14.72a2,2,0,0,1-2.18,1.24,8.8,8.8,0,0,0-6.83,2.53,9.71,9.71,0,0,0-.06,13.66,9.54,9.54,0,0,0,14.47-1.39,9.11,9.11,0,0,0,.13-10.53,1.77,1.77,0,0,1,.07-2.25q4.31-7.38,8.55-14.82c.24-.43.41-.47.83-.25a60.66,60.66,0,0,0,14.32,5.1,64.81,64.81,0,0,0,9.51,1.35c.73.05.94.22.93,1,0,5.78,0,11.56,0,17.34a1.18,1.18,0,0,1-.8,1.26,9.42,9.42,0,0,0,4.26,18,9.17,9.17,0,0,0,5.86-2.18,9.49,9.49,0,0,0-2.31-15.86,1,1,0,0,1-.66-1.11c0-2.9,0-5.81,0-8.71s0-5.88,0-8.81c0-.32-.22-.85.42-.84s1.22-.17,1.84-.2a49.64,49.64,0,0,0,8.31-1.26,62.45,62.45,0,0,0,14.15-5c.4-.19.56-.13.76.23.7,1.27,1.43,2.52,2.15,3.78,2.3,4,4.59,8,6.91,11.92.18.31.22.45,0,.76a8.91,8.91,0,0,0-1.88,4.84A9.41,9.41,0,0,0,699,471.25a9.08,9.08,0,0,0,7.42-5.81,9.43,9.43,0,0,0-9.65-12.95,1,1,0,0,1-1.16-.62c-1.45-2.58-3-5.12-4.46-7.68s-2.79-4.87-4.23-7.27c-.44-.75-.4-1.18.39-1.66a49.19,49.19,0,0,0,7.64-6,60.26,60.26,0,0,0,9.46-11.19c.3-.45.52-.54,1-.29,1.7,1,3.42,2,5.12,3,3.31,1.92,6.59,3.88,9.92,5.75a1.47,1.47,0,0,1,.94,1.57,9.32,9.32,0,0,0,2.94,7.61,9.63,9.63,0,0,0,13,0,9.37,9.37,0,0,0,2.79-9.06,8.85,8.85,0,0,0-4.79-6.27,9.32,9.32,0,0,0-9.92.58c-.39.26-.73.51-1.25.2q-7.66-4.49-15.36-8.91c-.51-.29-.57-.54-.33-1a62.72,62.72,0,0,0,4.39-11.55,59.18,59.18,0,0,0,2-12.11c0-.8.33-.9,1-.89,5.69,0,11.38,0,17.06,0a1.59,1.59,0,0,1,1.74,1.08,9.19,9.19,0,0,0,9.76,5.09A9.36,9.36,0,0,0,752.26,382.2ZM730.8,335.12a3.25,3.25,0,0,1,3,3.06,3.16,3.16,0,0,1-3.09,2.95,2.93,2.93,0,0,1-3-3A3,3,0,0,1,730.8,335.12ZM697.56,302a3.15,3.15,0,0,1,3.08,3,3.05,3.05,0,0,1-6.1,0A3.13,3.13,0,0,1,697.56,302ZM607,308A3,3,0,0,1,604,305a3.15,3.15,0,0,1,3-3.05,3,3,0,0,1,.08,6Zm-33.24,33.18a3,3,0,1,1,3-3A2.94,2.94,0,0,1,573.77,341.13ZM561.64,386.5a3.31,3.31,0,0,1-3-3,3.07,3.07,0,0,1,6.13,0C564.85,384.92,563.1,386.53,561.64,386.5Zm12.1,45.18c-1.56.24-3-1.72-3-2.92a3.3,3.3,0,0,1,3-3.07,3.07,3.07,0,0,1,3,3A2.84,2.84,0,0,1,573.74,431.68Zm33.15,33.18a3,3,0,0,1-2.94-2.94,3.25,3.25,0,0,1,3-3.06,3,3,0,0,1,3,3.09A3,3,0,0,1,606.89,464.86Zm90.68-6a3.26,3.26,0,0,1,3.08,3,3.06,3.06,0,0,1-6.12,0A3.2,3.2,0,0,1,697.57,458.86Zm33.18-33.17a3.37,3.37,0,0,1,3.07,3c-.14,1.73-1.54,3.19-3.12,2.95a2.91,2.91,0,0,1-3-2.89A3.11,3.11,0,0,1,730.75,425.69Zm-78.39-135.9a3.16,3.16,0,0,1,2.95,3.08,3,3,0,0,1-6,0A3,3,0,0,1,652.36,289.79Zm0,187.25a3,3,0,1,1,0-6,3,3,0,0,1,0,6Zm38.31-52.75a54.45,54.45,0,0,1-40.79,15.23,56.12,56.12,0,0,1-53.71-56.65c.08-15.92,6.24-29.54,17.9-40.43a55.88,55.88,0,0,1,78.38,1.86c10.56,10.86,15.86,24,16,40A54.76,54.76,0,0,1,690.65,424.29Zm52.2-37.81a3.18,3.18,0,0,1-3-3.05,3,3,0,0,1,3-2.93,2.93,2.93,0,0,1,3,2.89A3,3,0,0,1,742.85,386.48Z" transform="translate(-0.59 -283.29)"/><path class="cls-1" d="M662.19,339.63a9.47,9.47,0,1,0,8.87,9.49A9.34,9.34,0,0,0,662.19,339.63ZM661.62,352a2.85,2.85,0,0,1-2.93-3,3,3,0,0,1,3-3,3.18,3.18,0,0,1,3,3.05A3,3,0,0,1,661.62,352Z" transform="translate(-0.59 -283.29)"/><path class="cls-1" d="M614.78,389.57a9.49,9.49,0,1,0,9.41,9.56A9.24,9.24,0,0,0,614.78,389.57Zm0,12.49a3,3,0,0,1,.08-6,3,3,0,0,1,3,3.13A3.07,3.07,0,0,1,614.76,402.06Z" transform="translate(-0.59 -283.29)"/><path class="cls-1" d="M649.16,380.2a9.49,9.49,0,0,0,0,19,9.49,9.49,0,1,0,0-19Zm0,12.49a3,3,0,0,1-3-3.09,3.08,3.08,0,0,1,3-2.92,3,3,0,0,1,0,6Z" transform="translate(-0.59 -283.29)"/><path class="cls-1" d="M681.14,399a9.46,9.46,0,0,0-10.24,9.45,9.32,9.32,0,0,0,9.41,9.46,9.19,9.19,0,0,0,9.5-9.39C690.08,403.13,685.48,399.31,681.14,399Zm-.78,12.44a3.16,3.16,0,0,1-3-3.17,3.1,3.1,0,0,1,3.06-2.85,3,3,0,0,1,2.95,3.15A3.11,3.11,0,0,1,680.36,411.45Z" transform="translate(-0.59 -283.29)"/><path class="cls-1" d="M627.32,349a3.24,3.24,0,0,0-3.3,3.23,3.27,3.27,0,0,0,6.53,0A3.24,3.24,0,0,0,627.32,349Z" transform="translate(-0.59 -283.29)"/><path class="cls-1" d="M608.84,370.93c-2-.2-3.23.81-3.56,3a3.31,3.31,0,0,0,3,3.41,3.39,3.39,0,0,0,3.55-3A3.11,3.11,0,0,0,608.84,370.93Z" transform="translate(-0.59 -283.29)"/><path class="cls-1" d="M639.78,414.62a3.19,3.19,0,1,0,0,6.37,3.19,3.19,0,0,0,0-6.37Z" transform="translate(-0.59 -283.29)"/><path class="cls-1" d="M686.62,358.38a3.06,3.06,0,0,0-3.19,3.21,3.13,3.13,0,0,0,3.23,3.19c1.71.07,3.46-1.63,3.15-3.23A3,3,0,0,0,686.62,358.38Z" transform="translate(-0.59 -283.29)"/><path class="cls-1" d="M661.63,427.07a3.24,3.24,0,0,0,0,6.48,3.24,3.24,0,0,0,0-6.48Z" transform="translate(-0.59 -283.29)"/><path class="cls-1" d="M686.71,380.2a3.24,3.24,0,1,0-.08,6.48,3.24,3.24,0,0,0,.08-6.48Z" transform="translate(-0.59 -283.29)"/><path class="cls-1" d="M633.57,373.94a3.06,3.06,0,0,0-3.19,3.21,2.9,2.9,0,0,0,3.13,3.16c1.69.32,3.34-1.47,3.26-3.12A3.25,3.25,0,0,0,633.57,373.94Z" transform="translate(-0.59 -283.29)"/><path class="cls-1" d="M667.85,373.94a3.19,3.19,0,0,0-3.16,3.27,3,3,0,0,0,3.16,3.1,2.9,2.9,0,0,0,3.21-3.09A3.06,3.06,0,0,0,667.85,373.94Z" transform="translate(-0.59 -283.29)"/><path class="cls-1" d="M64.91,346V315.29c0-7.68-1.6-9.28-9.28-9.28H39.31c-7.68,0-9.6,1.6-9.6,9.28V451.93c0,7.68,1.92,9.28,9.6,9.28H55.63c7.68,0,9.28-1.6,9.28-9.28v-30.4H94.36v33.92c0,18.56-9.28,28.48-30.09,28.48H30.35C9.87,483.93.59,474,.59,455.45v-144c0-18.24,9.28-28.16,29.76-28.16H64.27c20.81,0,30.09,9.92,30.09,28.16V346Z" transform="translate(-0.59 -283.29)"/><path class="cls-1" d="M186.83,283.29c20.8,0,29.76,9.92,29.76,28.16v144c0,18.24-9,28.16-29.76,28.16H151.31c-20.8,0-30.08-9.92-30.08-28.16v-144c0-18.24,9.28-28.16,30.08-28.16Zm1,32.64c0-7.68-1.92-9.28-9.6-9.28H159.63c-7.68,0-9.28,1.6-9.28,9.28V451c0,7.68,1.6,9.28,9.28,9.28h18.56c7.68,0,9.6-1.6,9.6-9.28Z" transform="translate(-0.59 -283.29)"/><path class="cls-1" d="M346.83,283.29,310.67,483.61h-41L233.55,283.29h29.76l26.56,173.76,27.2-173.76Z" transform="translate(-0.59 -283.29)"/><path class="cls-1" d="M396.43,283.29V483.61h-28.8V283.29Z" transform="translate(-0.59 -283.29)"/><path class="cls-1" d="M502.67,283.29c20.48,0,29.76,9.92,29.76,28.16v144c0,18.24-9.28,28.16-29.76,28.16H432.91V283.29Zm.64,32c0-7.68-1.92-9.28-9.6-9.28H462V460.89h31.68c7.68,0,9.6-1.6,9.6-9.28Z" transform="translate(-0.59 -283.29)"/><path class="cls-1" d="M835.76,342.25V315.69c0-7.69-1.92-9.29-9.6-9.29H809.84c-7.68,0-9.6,1.6-9.6,9.29V452.33c0,7.68,1.92,9.28,9.6,9.28h16.32c7.68,0,9.6-1.6,9.6-9.28v-49h-16V381h45.12v74.88c0,18.56-9.28,28.48-29.76,28.48H800.88c-20.49,0-29.76-9.92-29.76-28.48v-144c0-18.24,9.27-28.16,29.76-28.16h34.24c20.48,0,29.76,9.92,29.76,28.16v30.41Z" transform="translate(-0.59 -283.29)"/><path class="cls-1" d="M939.43,403.05H923.75v81H895V283.68h65.6c20.8,0,29.76,9.92,29.76,28.16v62.73c0,16-6.4,25.28-21.44,27.84l31.68,81.6h-31Zm-15.68-23h28.16c7.68,0,9.6-1.6,9.6-9.28V316.32c0-7.67-1.92-9.28-9.6-9.28H923.75Z" transform="translate(-0.59 -283.29)"/><path class="cls-1" d="M1087.27,437.61H1045l-7.36,46.4h-28.8l35.52-200.33h41.92L1124.39,484h-29.12Zm-3.84-23.36-18.24-105.6-16.64,105.6Z" transform="translate(-0.59 -283.29)"/><path class="cls-1" d="M1210.47,283.68c20.8,0,29.76,9.92,29.76,28.16v66.57c0,18.56-9,28.16-29.76,28.16h-36.8V484h-28.8V283.68Zm1,32.64c0-7.67-1.92-9.28-9.6-9.28h-28.16v76.49h28.16c7.68,0,9.6-1.92,9.6-9.6Z" transform="translate(-0.59 -283.29)"/><path class="cls-1" d="M1366,283.68V484h-28.8V396h-42.57v88h-28.79V283.68h28.79v89h42.57v-89Z" transform="translate(-0.59 -283.29)"/><path class="cls-1" d="M598.09,368.29c.17-.65.36-1.29.56-1.92C598.45,367,598.27,367.64,598.09,368.29Z" transform="translate(-0.59 -283.29)"/><path class="cls-1" d="M599.25,364.61c.08-.24.16-.48.25-.71C599.41,364.13,599.33,364.37,599.25,364.61Z" transform="translate(-0.59 -283.29)"/><path class="cls-1" d="M600.21,362.1l.36-.89Z" transform="translate(-0.59 -283.29)"/></svg>